<svg width="50" height="49" viewBox="0 0 50 49" fill="none" xmlns="http://www.w3.org/2000/svg">
<rect x="0.256275" y="1.00627" width="49.2048" height="47.4874" rx="2.81902" fill="#121214"/>
<rect x="0.256275" y="1.00627" width="49.2048" height="47.4874" rx="2.81902" fill="url(#paint0_linear_971_4390)"/>
<path d="M12.7578 30.7297L15.5014 29.0609C16.0306 30.0045 16.5124 30.8025 17.6674 30.8025C18.7742 30.8025 19.4724 30.3693 19.4724 28.6736V17.1586H22.8417V28.7213C22.8417 32.2287 20.7963 33.8255 17.8123 33.8255C16.7573 33.8829 15.7098 33.6178 14.8077 33.065C13.9056 32.5122 13.1913 31.6977 12.7587 30.7288L12.7578 30.7297ZM24.6725 30.3658L27.416 28.7689C27.7211 29.391 28.1946 29.914 28.782 30.2777C29.3695 30.6414 30.0472 30.8311 30.7371 30.825C32.1334 30.825 33.023 30.1232 33.023 29.1554C33.023 27.9943 32.1084 27.5828 30.5682 26.9026L29.7286 26.5439C27.2979 25.5042 25.6852 24.1976 25.6852 21.4397C25.6852 18.8993 27.6108 16.9645 30.619 16.9645C31.5937 16.8935 32.5677 17.1126 33.4193 17.5944C34.271 18.0762 34.9626 18.7994 35.408 19.6739L32.7842 21.3678C32.612 20.9337 32.3127 20.5625 31.9258 20.3033C31.539 20.0441 31.083 19.9092 30.6181 19.9165C30.4155 19.8959 30.2108 19.918 30.0172 19.9813C29.8235 20.0447 29.6451 20.148 29.4933 20.2845C29.3416 20.4211 29.2198 20.5879 29.1358 20.7745C29.0518 20.961 29.0074 21.163 29.0055 21.3678C29.0055 22.3841 29.6312 22.7948 31.0741 23.4239L31.9162 23.7869C34.7805 25.0207 36.3923 26.2788 36.3923 29.1086C36.3923 32.1567 34.0099 33.8264 30.8095 33.8264C27.6806 33.8264 25.6594 32.3266 24.6725 30.3667" fill="#FDE635"/>
<rect x="0.256275" y="1.00627" width="49.2048" height="47.4874" rx="2.81902" stroke="url(#paint1_linear_971_4390)" stroke-width="0.51255"/>
<defs>
<linearGradient id="paint0_linear_971_4390" x1="24.8587" y1="0.75" x2="24.8587" y2="48.75" gradientUnits="userSpaceOnUse">
<stop stop-color="#202024"/>
<stop offset="1" stop-color="#202024" stop-opacity="0.2"/>
</linearGradient>
<linearGradient id="paint1_linear_971_4390" x1="24.8587" y1="0.75" x2="24.8587" y2="48.75" gradientUnits="userSpaceOnUse">
<stop stop-color="#323238"/>
<stop offset="1" stop-color="#323238" stop-opacity="0.3"/>
</linearGradient>
</defs>
</svg>
