<svg width="49" height="49" viewBox="0 0 49 49" fill="none" xmlns="http://www.w3.org/2000/svg">
<rect x="0.587546" y="0.986228" width="47.5588" height="47.5276" rx="2.72472" fill="#121214"/>
<rect x="0.587546" y="0.986228" width="47.5588" height="47.5276" rx="2.72472" fill="url(#paint0_linear_971_4399)"/>
<path d="M24.6719 39.7156C32.9561 39.7156 39.6719 32.9998 39.6719 24.7156C39.6719 16.4313 32.9561 9.71558 24.6719 9.71558C16.3876 9.71558 9.67188 16.4313 9.67188 24.7156C9.67188 32.9998 16.3876 39.7156 24.6719 39.7156Z" fill="black"/>
<path d="M34.5899 35.9692L21.1955 18.7158H18.6719V30.7108H20.6908V21.2798L33.005 37.19C33.5607 36.8182 34.09 36.41 34.5899 35.9692Z" fill="url(#paint1_linear_971_4399)"/>
<path d="M30.8398 18.7158H28.8398V30.7158H30.8398V18.7158Z" fill="url(#paint2_linear_971_4399)"/>
<rect x="0.587546" y="0.986228" width="47.5588" height="47.5276" rx="2.72472" stroke="url(#paint3_linear_971_4399)" stroke-width="0.495404"/>
<defs>
<linearGradient id="paint0_linear_971_4399" x1="24.3669" y1="0.738525" x2="24.3669" y2="48.7616" gradientUnits="userSpaceOnUse">
<stop stop-color="#202024"/>
<stop offset="1" stop-color="#202024" stop-opacity="0.2"/>
</linearGradient>
<linearGradient id="paint1_linear_971_4399" x1="27.8385" y1="29.1325" x2="33.7552" y2="36.4658" gradientUnits="userSpaceOnUse">
<stop stop-color="white"/>
<stop offset="1" stop-color="white" stop-opacity="0"/>
</linearGradient>
<linearGradient id="paint2_linear_971_4399" x1="29.8398" y1="18.7158" x2="29.8063" y2="27.5283" gradientUnits="userSpaceOnUse">
<stop stop-color="white"/>
<stop offset="1" stop-color="white" stop-opacity="0"/>
</linearGradient>
<linearGradient id="paint3_linear_971_4399" x1="24.3669" y1="0.738525" x2="24.3669" y2="48.7616" gradientUnits="userSpaceOnUse">
<stop stop-color="#323238"/>
<stop offset="1" stop-color="#323238" stop-opacity="0.3"/>
</linearGradient>
</defs>
</svg>
