<svg width="48" height="49" viewBox="0 0 48 49" fill="none" xmlns="http://www.w3.org/2000/svg">
<rect x="0.525046" y="0.986228" width="46.568" height="47.5276" rx="2.72472" fill="#121214"/>
<rect x="0.525046" y="0.986228" width="46.568" height="47.5276" rx="2.72472" fill="url(#paint0_linear_971_4395)"/>
<path d="M23.1213 9.96769C23.4831 9.76267 23.8908 9.65503 24.3054 9.65503C24.7199 9.65503 25.1276 9.76267 25.4894 9.96769C29.0951 12.0322 32.7011 14.0965 36.3073 16.1604C36.6465 16.3561 36.9289 16.6387 37.1263 16.9799C37.3237 17.3211 37.4292 17.7088 37.4322 18.1043V30.5304C37.4252 30.9404 37.3092 31.341 37.0965 31.6899C36.8838 32.0388 36.5822 32.3232 36.2235 32.5131C32.6294 34.5665 29.0362 36.6209 25.4439 38.6762C25.0752 38.8829 24.6587 38.9856 24.2375 38.9738C23.8164 38.9619 23.4061 38.8359 23.0493 38.6089C21.9721 37.9756 20.894 37.344 19.815 36.7138C19.5782 36.6051 19.3658 36.4483 19.1911 36.2532C19.3286 36.0686 19.5745 36.0419 19.774 35.9597C20.2167 35.7992 20.6436 35.5971 21.0492 35.356C21.1003 35.3255 21.1592 35.3111 21.2184 35.3147C21.2777 35.3183 21.3345 35.3398 21.3816 35.3764C22.3034 35.9117 23.216 36.4628 24.1405 36.9926C24.3381 37.108 24.5376 36.9548 24.7061 36.8597C28.2328 34.8394 31.7608 32.8217 35.2899 30.8064C35.3529 30.7745 35.4049 30.7242 35.4392 30.662C35.4735 30.5997 35.4884 30.5284 35.4821 30.4574C35.4821 26.3597 35.4821 22.2614 35.4821 18.1625C35.4885 18.0827 35.4702 18.003 35.4297 17.9343C35.3892 17.8656 35.3286 17.8115 35.2562 17.7794C31.6736 15.7352 28.0929 13.69 24.5139 11.6439C24.4518 11.6009 24.3783 11.5778 24.3031 11.5778C24.2278 11.5778 24.1543 11.6009 24.0922 11.6439C20.5096 13.6894 16.9292 15.7355 13.3508 17.7822C13.2782 17.8134 13.2172 17.8671 13.1765 17.9355C13.1357 18.004 13.1174 18.0838 13.124 18.1634C13.124 22.2611 13.124 26.3594 13.124 30.4584C13.1178 30.5292 13.1332 30.6003 13.168 30.662C13.2029 30.7237 13.2556 30.7731 13.319 30.8036C14.2747 31.3525 15.2308 31.8999 16.1872 32.4457C16.4524 32.6118 16.7492 32.7194 17.0582 32.7614C17.3672 32.8034 17.6815 32.7788 17.9806 32.6894C18.2397 32.5904 18.4628 32.4136 18.6202 32.1827C18.7776 31.9518 18.8617 31.6777 18.8613 31.3971C18.8659 27.3228 18.8613 23.2485 18.8613 19.1751C18.8603 19.1318 18.8682 19.0889 18.8847 19.049C18.9012 19.0091 18.9258 18.9732 18.9569 18.9437C18.9881 18.9141 19.025 18.8916 19.0654 18.8775C19.1057 18.8635 19.1486 18.8582 19.1911 18.8622C19.6465 18.8622 20.1101 18.8557 20.5691 18.8622C20.6136 18.8642 20.657 18.8758 20.6968 18.8959C20.7365 18.9161 20.7717 18.9445 20.7999 18.9793C20.8281 19.0141 20.8489 19.0545 20.8607 19.0979C20.8726 19.1414 20.8754 19.1868 20.8688 19.2314C20.8688 23.3315 20.8734 27.4317 20.8688 31.5309C20.8993 32.0879 20.7819 32.6429 20.5288 33.1383C20.2757 33.6336 19.8962 34.051 19.4297 34.3472C18.8063 34.6416 18.1238 34.7849 17.4363 34.7659C16.7488 34.7468 16.0751 34.5658 15.4685 34.2373C14.4174 33.7056 13.4146 33.0789 12.3826 32.5094C12.0244 32.32 11.7233 32.0362 11.5109 31.6879C11.2985 31.3396 11.1827 30.9397 11.1758 30.5304V18.1043C11.1789 17.7005 11.2886 17.305 11.4937 16.9587C11.6987 16.6125 11.9915 16.3282 12.3416 16.1355C15.9364 14.0808 19.5296 12.0248 23.1213 9.96769Z" fill="#8CC84B"/>
<path d="M26.5649 18.9031C28.1527 18.6948 29.7663 18.945 31.2201 19.6249C31.7469 19.9434 32.1825 20.3958 32.4836 20.9374C32.7848 21.479 32.9411 22.091 32.937 22.7126C32.9165 22.7904 32.869 22.858 32.8033 22.9031C32.7375 22.9482 32.6579 22.9678 32.5791 22.9581C32.1236 22.9581 31.6682 22.9646 31.2128 22.9581C31.1254 22.9524 31.0433 22.9139 30.9825 22.85C30.9217 22.7862 30.8865 22.7016 30.884 22.6129C30.8325 22.3119 30.7169 22.0258 30.5453 21.7746C30.3737 21.5233 30.1502 21.313 29.8903 21.1582C29.0254 20.8101 28.0915 20.6747 27.1651 20.7631C26.4824 20.7414 25.8072 20.9117 25.2141 21.2551C25.0099 21.4155 24.8604 21.6368 24.7867 21.8878C24.7131 22.1389 24.7189 22.407 24.8033 22.6545C24.9491 23.0061 25.3498 23.116 25.6777 23.224C27.5668 23.7243 29.5679 23.6744 31.4205 24.3317C31.8183 24.4436 32.1856 24.6464 32.4941 24.9245C32.8026 25.2026 33.0442 25.5486 33.2002 25.936C33.386 26.4856 33.4309 27.0741 33.3307 27.6462C33.2305 28.2183 32.9885 28.7551 32.6273 29.2064C31.9741 29.8936 31.1255 30.357 30.2 30.5319C28.9944 30.7801 27.7577 30.8333 26.5357 30.6898C25.3629 30.622 24.2385 30.1934 23.3123 29.4612C22.9448 29.1199 22.6563 28.7006 22.4674 28.2333C22.2784 27.7659 22.1937 27.2619 22.2193 26.7575C22.2276 26.6759 22.2674 26.601 22.33 26.5491C22.3927 26.4972 22.4731 26.4726 22.5536 26.4806C23.009 26.4806 23.469 26.476 23.9271 26.4806C23.9695 26.4796 24.0117 26.4872 24.0512 26.5028C24.0907 26.5185 24.1267 26.5419 24.1572 26.5718C24.1877 26.6017 24.2121 26.6374 24.2289 26.6769C24.2457 26.7164 24.2545 26.7588 24.255 26.8018C24.2779 27.0885 24.3584 27.3674 24.4915 27.6214C24.6246 27.8753 24.8076 28.099 25.0292 28.2787C26.0099 28.7677 27.1057 28.9698 28.1934 28.8621C29.1039 28.9315 30.0125 28.7051 30.7875 28.216C30.9656 28.0394 31.0953 27.8189 31.1637 27.5761C31.232 27.3333 31.2367 27.0766 31.1773 26.8314C31.0662 26.4215 30.6426 26.2304 30.2792 26.1058C28.4148 25.5077 26.3909 25.7246 24.541 25.0489C24.1537 24.9341 23.7955 24.7355 23.4912 24.4668C23.187 24.1981 22.9438 23.8657 22.7786 23.4926C22.5664 22.9356 22.5128 22.3294 22.6239 21.7431C22.735 21.1567 23.0063 20.6137 23.407 20.176C24.28 19.3951 25.3915 18.9424 26.5548 18.8939L26.5649 18.9031Z" fill="#8CC84B"/>
<rect x="0.525046" y="0.986228" width="46.568" height="47.5276" rx="2.72472" stroke="url(#paint1_linear_971_4395)" stroke-width="0.495404"/>
<defs>
<linearGradient id="paint0_linear_971_4395" x1="23.809" y1="0.738525" x2="23.809" y2="48.7616" gradientUnits="userSpaceOnUse">
<stop stop-color="#202024"/>
<stop offset="1" stop-color="#202024" stop-opacity="0.2"/>
</linearGradient>
<linearGradient id="paint1_linear_971_4395" x1="23.809" y1="0.738525" x2="23.809" y2="48.7616" gradientUnits="userSpaceOnUse">
<stop stop-color="#323238"/>
<stop offset="1" stop-color="#323238" stop-opacity="0.3"/>
</linearGradient>
</defs>
</svg>
