<svg width="49" height="49" viewBox="0 0 49 49" fill="none" xmlns="http://www.w3.org/2000/svg">
<rect x="0.966452" y="0.986228" width="47.0634" height="47.5276" rx="2.72472" fill="#121214"/>
<rect x="0.966452" y="0.986228" width="47.0634" height="47.5276" rx="2.72472" fill="url(#paint0_linear_971_4392)"/>
<path d="M25.5673 35.1331C25.3237 34.9037 25.0678 34.6735 24.8242 34.4194C24.6294 34.6104 24.4469 34.7888 24.252 34.9672C21.8401 37.1691 19.3555 38.0862 17.8816 37.1946C16.456 36.3414 16.0052 33.8195 16.5782 30.6482C16.639 30.3042 16.7121 29.9604 16.7976 29.6166C16.5417 29.5402 16.2981 29.4637 16.0544 29.3747C13.0212 28.2809 11.0234 26.4964 11.0234 24.7132C11.0234 22.9943 12.8882 21.3255 15.7981 20.2559C16.127 20.1414 16.4683 20.0265 16.8214 19.9246C16.7361 19.5932 16.675 19.2753 16.6143 18.9694C16.0052 15.7464 16.4318 13.1743 17.8693 12.3086C19.3674 11.3915 21.8524 12.3721 24.3492 14.6776C24.4953 14.8176 24.6417 14.9701 24.8 15.123C25.0317 14.8941 25.2507 14.6634 25.4824 14.4612C27.8464 12.3086 30.1964 11.404 31.6331 12.2702C33.1313 13.1614 33.5701 15.9135 32.9 19.3129C32.8635 19.5297 32.8147 19.7332 32.7663 19.9501C33.0706 20.0395 33.3749 20.141 33.6554 20.2425C36.6276 21.3126 38.5523 22.9809 38.5281 24.7386C38.5281 26.5353 36.4697 28.3047 33.3146 29.3998C33.144 29.4508 32.9738 29.5143 32.8032 29.5669C32.8762 29.8218 32.925 30.0762 32.9738 30.3311C33.6086 33.6319 33.1202 36.3301 31.6462 37.2217C31.2541 37.4509 30.8113 37.5662 30.363 37.556C29.0101 37.5564 27.2952 36.6836 25.5673 35.1331ZM27.9551 30.459C27.2522 31.5297 26.4835 32.5508 25.6538 33.5157C25.8851 33.758 26.1164 33.9753 26.3482 34.1779C28.3578 35.9863 30.2095 36.6614 31.074 36.1392C31.4764 35.8973 31.8172 35.286 31.9759 34.3564C32.1519 33.0926 32.1022 31.8054 31.8295 30.5609C31.793 30.3315 31.7442 30.1013 31.6831 29.8602C30.4535 30.142 29.2082 30.3414 27.9547 30.4573L27.9551 30.459ZM17.7474 30.8668C17.2483 33.5792 17.6133 35.6044 18.4783 36.1266C18.8806 36.3686 19.5496 36.3686 20.403 36.0502C21.5392 35.5851 22.5839 34.9029 23.4847 34.038C23.6676 33.8851 23.8378 33.7067 24.0207 33.5287C23.1721 32.5627 22.3825 31.5411 21.6568 30.4698C20.4085 30.3675 19.1677 30.1807 17.9423 29.9104C17.8693 30.2409 17.8081 30.5588 17.747 30.8647L17.7474 30.8668ZM24.8369 32.6496C25.3729 32.0254 25.9081 31.3376 26.445 30.5734C25.9089 30.5989 25.3487 30.6115 24.7885 30.6115C24.2401 30.6115 23.7042 30.5988 23.1808 30.5734C23.699 31.294 24.2516 31.9864 24.8365 32.6479L24.8369 32.6496ZM22.2785 20.217C21.8159 20.9173 21.366 21.656 20.9386 22.4315C20.5121 23.1957 20.1225 23.9728 19.769 24.7491C20.1344 25.5133 20.5228 26.2904 20.9505 27.0801C21.3771 27.8443 21.8278 28.5955 22.2904 29.3087C23.0943 29.3597 23.935 29.3852 24.7877 29.3852C25.6522 29.3852 26.4938 29.3597 27.3087 29.2962C27.7476 28.5955 28.1979 27.8443 28.6244 27.0671C29.0509 26.29 29.4525 25.5007 29.806 24.7366C29.4529 23.9845 29.0521 23.2082 28.6244 22.4315C28.1967 21.6547 27.7472 20.9156 27.2968 20.217C26.4807 20.1531 25.6399 20.1147 24.7877 20.1147C23.9354 20.1147 23.0947 20.1535 22.2785 20.217ZM18.2589 28.7376C19.0958 28.9248 19.9416 29.0652 20.7926 29.1583C20.5002 28.6741 20.2082 28.1902 19.9277 27.6809C19.6599 27.1845 19.3916 26.6873 19.148 26.191C18.8094 27.0228 18.5126 27.8729 18.2589 28.7376ZM29.6461 27.6675C29.366 28.1769 29.0858 28.6611 28.8057 29.1324C29.6694 29.026 30.5273 28.8726 31.376 28.6728C31.1105 27.8112 30.8014 26.9651 30.4499 26.1383C30.1955 26.6475 29.9281 27.1574 29.6477 27.668L29.6461 27.6675ZM16.1759 21.4287C13.6913 22.3454 12.1931 23.6849 12.1931 24.7269C12.1931 25.2112 12.5339 25.8225 13.216 26.4333C14.1791 27.2236 15.2679 27.8273 16.4318 28.2161C16.6512 28.2926 16.8825 28.3565 17.1138 28.433C17.4895 27.1768 17.9412 25.9473 18.4664 24.752C17.9402 23.5764 17.4924 22.3636 17.1261 21.1224C16.7973 21.2107 16.4806 21.3128 16.1759 21.4287ZM31.1217 24.7269C31.6618 25.9069 32.1257 27.1238 32.5103 28.3695C32.6691 28.3189 32.8278 28.2675 32.9734 28.2165C35.6896 27.274 37.3707 25.835 37.383 24.714C37.383 23.6695 35.8237 22.3199 33.2777 21.4028C33.0222 21.3138 32.7421 21.2244 32.4619 21.1354C32.0908 22.362 31.6431 23.5613 31.1217 24.7257V24.7269ZM29.6358 21.7964C29.9159 22.3057 30.1837 22.8029 30.4293 23.3005C30.7669 22.4912 31.0597 21.662 31.3062 20.817C30.4777 20.6194 29.6402 20.466 28.797 20.3574C29.0874 20.8287 29.3676 21.3 29.6358 21.7964ZM18.2708 20.802C18.5144 21.6167 18.8068 22.4448 19.148 23.298C19.3916 22.8017 19.6599 22.3045 19.9277 21.8081C20.1955 21.3117 20.4756 20.8275 20.768 20.3562C19.8912 20.4723 19.0631 20.6252 18.2708 20.802ZM26.2498 15.3904C26.0426 15.5814 25.8355 15.7853 25.6284 15.9892C26.4704 16.941 27.2478 17.9539 27.9551 19.0204C29.1927 19.1374 30.4215 19.3418 31.6331 19.6321C31.6819 19.4412 31.7184 19.2498 31.7549 19.0589C32.327 16.13 31.9743 13.888 31.0483 13.3281C30.8426 13.2161 30.6131 13.1614 30.3817 13.1693C29.3866 13.1689 27.8598 13.9285 26.2498 15.3904ZM18.4537 13.3649C17.5887 13.8867 17.2479 15.9758 17.7593 18.7267C17.8201 19.0192 17.8816 19.3116 17.9542 19.6179C19.1675 19.3384 20.3961 19.1386 21.633 19.0196C22.3428 17.9517 23.1243 16.9386 23.9715 15.9883C23.8374 15.8479 23.6914 15.7209 23.5573 15.5931C21.8603 14.0204 20.2324 13.1902 19.1679 13.1902C18.9194 13.1817 18.6732 13.2419 18.4537 13.3649ZM26.42 18.9176C25.9166 18.203 25.3758 17.5185 24.8 16.8674C24.252 17.4912 23.7037 18.1794 23.1677 18.9176C23.7037 18.8921 24.2389 18.8796 24.7877 18.8796C25.3364 18.8796 25.8839 18.893 26.42 18.9181V18.9176ZM22.3503 24.7771C22.347 24.264 22.4884 23.7614 22.7566 23.333C23.0248 22.9047 23.4078 22.5699 23.857 22.371C24.3062 22.1722 24.8014 22.1183 25.2797 22.2163C25.758 22.3142 26.1979 22.5595 26.5436 22.921C26.8894 23.2826 27.1253 23.7441 27.2217 24.2471C27.318 24.7501 27.2703 25.2719 27.0846 25.7463C26.8989 26.2206 26.5836 26.6263 26.1787 26.9117C25.7738 27.1972 25.2975 27.3496 24.8103 27.3496C24.4881 27.3516 24.1688 27.2866 23.8706 27.1583C23.5724 27.0299 23.3012 26.8408 23.0726 26.6018C22.844 26.3627 22.6625 26.0784 22.5386 25.7653C22.4146 25.4522 22.3506 25.1163 22.3503 24.7771Z" fill="#81D8F7"/>
<rect x="0.966452" y="0.986228" width="47.0634" height="47.5276" rx="2.72472" stroke="url(#paint1_linear_971_4392)" stroke-width="0.495404"/>
<defs>
<linearGradient id="paint0_linear_971_4392" x1="24.4982" y1="0.738525" x2="24.4982" y2="48.7616" gradientUnits="userSpaceOnUse">
<stop stop-color="#202024"/>
<stop offset="1" stop-color="#202024" stop-opacity="0.2"/>
</linearGradient>
<linearGradient id="paint1_linear_971_4392" x1="24.4982" y1="0.738525" x2="24.4982" y2="48.7616" gradientUnits="userSpaceOnUse">
<stop stop-color="#323238"/>
<stop offset="1" stop-color="#323238" stop-opacity="0.3"/>
</linearGradient>
</defs>
</svg>
