<svg width="49" height="49" viewBox="0 0 49 49" fill="none" xmlns="http://www.w3.org/2000/svg">
<rect x="0.80239" y="0.986228" width="47.5588" height="47.5276" rx="2.72472" fill="#121214"/>
<rect x="0.80239" y="0.986228" width="47.5588" height="47.5276" rx="2.72472" fill="url(#paint0_linear_971_4415)"/>
<path d="M24.5801 17.5479C21.1629 17.5479 19.0272 19.2355 18.1729 22.6107C19.4543 20.9231 20.9493 20.2903 22.6579 20.7122C23.6328 20.9529 24.3295 21.6514 25.1008 22.4247C26.3572 23.6843 27.8113 25.1422 30.9873 25.1422C34.4045 25.1422 36.5402 23.4546 37.3945 20.0793C36.1131 21.7669 34.6181 22.3998 32.9095 21.9779C31.9346 21.7372 31.2379 21.0386 30.4666 20.2654C29.2102 19.0057 27.7561 17.5479 24.5801 17.5479ZM18.1729 25.1422C14.7557 25.1422 12.6199 26.8298 11.7656 30.2051C13.0471 28.5175 14.5421 27.8846 16.2507 28.3065C17.2255 28.5472 17.9223 29.2458 18.6935 30.019C19.9499 31.2786 21.404 32.7365 24.5801 32.7365C27.9973 32.7365 30.133 31.0489 30.9873 27.6736C29.7059 29.3613 28.2108 29.9941 26.5022 29.5722C25.5274 29.3315 24.8306 28.633 24.0594 27.8597C22.803 26.6001 21.3489 25.1422 18.1729 25.1422Z" fill="url(#paint1_linear_971_4415)"/>
<rect x="0.80239" y="0.986228" width="47.5588" height="47.5276" rx="2.72472" stroke="url(#paint2_linear_971_4415)" stroke-width="0.495404"/>
<defs>
<linearGradient id="paint0_linear_971_4415" x1="24.5818" y1="0.738525" x2="24.5818" y2="48.7616" gradientUnits="userSpaceOnUse">
<stop stop-color="#202024"/>
<stop offset="1" stop-color="#202024" stop-opacity="0.2"/>
</linearGradient>
<linearGradient id="paint1_linear_971_4415" x1="11.0537" y1="22.4082" x2="33.0513" y2="35.2491" gradientUnits="userSpaceOnUse">
<stop stop-color="#0ECCAD"/>
<stop offset="1" stop-color="#0ED7B5"/>
</linearGradient>
<linearGradient id="paint2_linear_971_4415" x1="24.5818" y1="0.738525" x2="24.5818" y2="48.7616" gradientUnits="userSpaceOnUse">
<stop stop-color="#323238"/>
<stop offset="1" stop-color="#323238" stop-opacity="0.3"/>
</linearGradient>
</defs>
</svg>
