<svg width="49" height="49" viewBox="0 0 49 49" fill="none" xmlns="http://www.w3.org/2000/svg">
<rect x="0.642233" y="0.986228" width="47.5588" height="47.5276" rx="2.72472" fill="#121214"/>
<rect x="0.642233" y="0.986228" width="47.5588" height="47.5276" rx="2.72472" fill="url(#paint0_linear_971_4404)"/>
<path d="M11.6094 19.4368V16.3816H24.4239V19.4368H19.5632V32.5306H16.4701V19.4368H11.6094Z" fill="#0288D1"/>
<path d="M33.2624 20.7461L35.9137 19.0003L35.6314 18.5819C34.6906 17.1881 33.1778 16.2859 31.5043 16.1206L31.2286 16.0933C30.2516 15.9968 29.2686 16.204 28.4137 16.6866L28.243 16.7829C27.2156 17.3628 26.4704 18.3381 26.181 19.4818L26.0752 19.8997C25.867 20.7223 25.9883 21.5936 26.4131 22.328C27.1336 23.5733 28.2063 24.5777 29.4962 25.2148L32.0012 26.4519C32.5158 26.706 32.8771 27.1917 32.9726 27.7576C33.1242 28.6561 32.4317 29.4753 31.5205 29.4753H31.4668C30.9086 29.4753 30.3627 29.3117 29.8965 29.0047L27.9599 27.7294L25.3086 29.4753L27.6455 31.527C28.7026 32.4551 30.0612 32.9669 31.4679 32.9669H31.6025C32.4038 32.9669 33.1953 32.7818 33.9138 32.427C34.9241 31.9281 35.7469 31.1141 36.2559 30.1087C36.8694 28.8967 36.8291 27.4569 36.1489 26.281L35.9812 25.9912C35.6456 25.4111 35.1883 24.9106 34.6407 24.5243L32.3787 22.9284L30.2608 21.3595C29.5877 20.8609 29.6403 19.8375 30.3609 19.4105C30.7779 19.1634 31.304 19.1986 31.6843 19.4991L33.2624 20.7461Z" fill="#0288D1"/>
<rect x="0.642233" y="0.986228" width="47.5588" height="47.5276" rx="2.72472" stroke="url(#paint1_linear_971_4404)" stroke-width="0.495404"/>
<defs>
<linearGradient id="paint0_linear_971_4404" x1="24.4216" y1="0.738525" x2="24.4216" y2="48.7616" gradientUnits="userSpaceOnUse">
<stop stop-color="#202024"/>
<stop offset="1" stop-color="#202024" stop-opacity="0.2"/>
</linearGradient>
<linearGradient id="paint1_linear_971_4404" x1="24.4216" y1="0.738525" x2="24.4216" y2="48.7616" gradientUnits="userSpaceOnUse">
<stop stop-color="#323238"/>
<stop offset="1" stop-color="#323238" stop-opacity="0.3"/>
</linearGradient>
</defs>
</svg>
