<svg width="49" height="49" viewBox="0 0 49 49" fill="none" xmlns="http://www.w3.org/2000/svg">
<rect x="0.696921" y="0.986228" width="47.5588" height="47.5276" rx="2.72472" fill="#121214"/>
<rect x="0.696921" y="0.986228" width="47.5588" height="47.5276" rx="2.72472" fill="url(#paint0_linear_971_4408)"/>
<g clip-path="url(#clip0_971_4408)">
<path d="M37.2979 15.5464L25.4742 36.7209C25.2301 37.1581 24.6029 37.1607 24.3551 36.7256L12.2969 15.5484C12.027 15.0743 12.4318 14.5 12.9682 14.5961L24.8046 16.7149C24.8801 16.7284 24.9574 16.7283 25.0329 16.7145L36.6218 14.5991C37.1564 14.5015 37.5631 15.0713 37.2979 15.5464Z" fill="url(#paint1_linear_971_4408)"/>
<path d="M30.4422 11.8168L21.6923 13.5338C21.5485 13.5621 21.442 13.6841 21.4334 13.8306L20.8951 22.9347C20.8825 23.1491 21.0791 23.3156 21.2881 23.2673L23.7242 22.7042C23.9521 22.6516 24.158 22.8526 24.1112 23.0822L23.3874 26.6316C23.3387 26.8705 23.5627 27.0748 23.7956 27.004L25.3003 26.5461C25.5335 26.4752 25.7577 26.68 25.7083 26.9191L24.5581 32.4945C24.4862 32.8433 24.9493 33.0334 25.1425 32.7344L25.2715 32.5347L32.4015 18.2844C32.5209 18.0458 32.315 17.7738 32.0533 17.8243L29.5457 18.309C29.3101 18.3545 29.1096 18.1347 29.1761 17.9038L30.8128 12.2217C30.8793 11.9904 30.6781 11.7705 30.4422 11.8168Z" fill="url(#paint2_linear_971_4408)"/>
</g>
<rect x="0.696921" y="0.986228" width="47.5588" height="47.5276" rx="2.72472" stroke="url(#paint3_linear_971_4408)" stroke-width="0.495404"/>
<defs>
<linearGradient id="paint0_linear_971_4408" x1="24.4763" y1="0.738525" x2="24.4763" y2="48.7616" gradientUnits="userSpaceOnUse">
<stop stop-color="#202024"/>
<stop offset="1" stop-color="#202024" stop-opacity="0.2"/>
</linearGradient>
<linearGradient id="paint1_linear_971_4408" x1="12.0025" y1="13.8393" x2="26.7467" y2="33.8331" gradientUnits="userSpaceOnUse">
<stop stop-color="#41D1FF"/>
<stop offset="1" stop-color="#BD34FE"/>
</linearGradient>
<linearGradient id="paint2_linear_971_4408" x1="24.1246" y1="12.2829" x2="26.7944" y2="30.57" gradientUnits="userSpaceOnUse">
<stop stop-color="#FFEA83"/>
<stop offset="0.0833333" stop-color="#FFDD35"/>
<stop offset="1" stop-color="#FFA800"/>
</linearGradient>
<linearGradient id="paint3_linear_971_4408" x1="24.4763" y1="0.738525" x2="24.4763" y2="48.7616" gradientUnits="userSpaceOnUse">
<stop stop-color="#323238"/>
<stop offset="1" stop-color="#323238" stop-opacity="0.3"/>
</linearGradient>
<clipPath id="clip0_971_4408">
<rect width="26" height="26" fill="white" transform="translate(11.6172 11.7156)"/>
</clipPath>
</defs>
</svg>
