<svg width="44" height="45" viewBox="0 0 44 45" fill="none" xmlns="http://www.w3.org/2000/svg">
<rect y="0.734985" width="44" height="44" rx="22" fill="#00A277"/>
<path d="M30.3547 15.2865C28.3906 13.3178 25.775 12.235 22.9953 12.235C17.2578 12.235 12.5891 16.9037 12.5891 22.6412C12.5891 24.474 13.0672 26.2647 13.9766 27.8444L12.5 33.235L18.0172 31.7865C19.5359 32.6162 21.2469 33.0522 22.9906 33.0522H22.9953C28.7281 33.0522 33.5 28.3834 33.5 22.6459C33.5 19.8662 32.3188 17.2553 30.3547 15.2865ZM22.9953 31.299C21.4391 31.299 19.9156 30.8819 18.5891 30.0944L18.275 29.9069L15.0031 30.7647L15.875 27.5725L15.6687 27.2444C14.8016 25.8662 14.3469 24.2772 14.3469 22.6412C14.3469 17.874 18.2281 13.9928 23 13.9928C25.3109 13.9928 27.4812 14.8928 29.1125 16.5287C30.7437 18.1647 31.7469 20.335 31.7422 22.6459C31.7422 27.4178 27.7625 31.299 22.9953 31.299ZM27.7391 24.8209C27.4813 24.6897 26.2016 24.0615 25.9625 23.9772C25.7234 23.8881 25.55 23.8459 25.3766 24.1084C25.2031 24.3709 24.7063 24.9522 24.5516 25.1303C24.4016 25.3037 24.2469 25.3272 23.9891 25.1959C22.4609 24.4319 21.4578 23.8319 20.45 22.1022C20.1828 21.6428 20.7172 21.6756 21.2141 20.6819C21.2984 20.5084 21.2562 20.3584 21.1906 20.2272C21.125 20.0959 20.6047 18.8162 20.3891 18.2959C20.1781 17.7897 19.9625 17.86 19.8031 17.8506C19.6531 17.8412 19.4797 17.8412 19.3062 17.8412C19.1328 17.8412 18.8516 17.9069 18.6125 18.1647C18.3734 18.4272 17.7031 19.0553 17.7031 20.335C17.7031 21.6147 18.6359 22.8522 18.7625 23.0256C18.8938 23.199 20.5953 25.824 23.2062 26.9537C24.8562 27.6662 25.5031 27.7272 26.3281 27.6053C26.8297 27.5303 27.8656 26.9772 28.0812 26.3678C28.2969 25.7584 28.2969 25.2381 28.2313 25.1303C28.1703 25.0131 27.9969 24.9475 27.7391 24.8209Z" fill="white"/>
</svg>
